<svg width="264" height="80" viewBox="0 0 264 80" xmlns="http://www.w3.org/2000/svg">
  <title>TetraPallete business icons (idol produce / video / event)</title>

  <!-- microphone : idol produce -->
  <g transform="translate(8,4)" fill="none" stroke="#EC7A2C" stroke-width="3" stroke-linecap="round" stroke-linejoin="round">
    <rect x="23" y="6" width="26" height="40" rx="13"/>
    <line x1="28" y1="16" x2="44" y2="16" stroke="#F6A862" stroke-width="2.4"/>
    <line x1="28" y1="23" x2="44" y2="23" stroke="#F6A862" stroke-width="2.4"/>
    <line x1="28" y1="30" x2="44" y2="30" stroke="#F6A862" stroke-width="2.4"/>
    <path d="M16 40 a20 20 0 0 0 40 0"/>
    <line x1="36" y1="60" x2="36" y2="66"/>
    <line x1="26" y1="66" x2="46" y2="66"/>
  </g>

  <!-- clapperboard : video production -->
  <g transform="translate(96,4)">
    <rect x="8" y="28" width="56" height="36" rx="5" fill="none" stroke="#EC7A2C" stroke-width="3" stroke-linejoin="round"/>
    <line x1="18" y1="42" x2="54" y2="42" stroke="#F4C79B" stroke-width="2.4" stroke-linecap="round"/>
    <line x1="18" y1="52" x2="44" y2="52" stroke="#F4C79B" stroke-width="2.4" stroke-linecap="round"/>
    <path d="M7 14 L63 8 L65 20 L9 26 Z" fill="#EC7A2C"/>
    <line x1="20" y1="24" x2="27" y2="11" stroke="#FFFFFF" stroke-width="2.6" stroke-linecap="round"/>
    <line x1="34" y1="22" x2="41" y2="9.5" stroke="#FFFFFF" stroke-width="2.6" stroke-linecap="round"/>
    <line x1="48" y1="20" x2="55" y2="8" stroke="#FFFFFF" stroke-width="2.6" stroke-linecap="round"/>
  </g>

  <!-- stage + spotlight : event production -->
  <g transform="translate(184,4)">
    <path d="M29 6 L43 6 L49 20 L23 20 Z" fill="#EC7A2C"/>
    <path d="M23 20 L49 20 L67 60 L5 60 Z" fill="#F59324" fill-opacity="0.16"/>
    <path d="M6 58 L64 58 L70 70 L2 70 Z" fill="none" stroke="#EC7A2C" stroke-width="3" stroke-linejoin="round"/>
    <path d="M55 9 l2.4 5 l5 2.4 l-5 2.4 l-2.4 5 l-2.4 -5 l-5 -2.4 l5 -2.4 Z" fill="#F6A862"/>
  </g>
</svg>
